{"title":"The Croods DvDRip x264 AC3 UNiQUE","uid":8910407,"size":1716782828,"categoryP":"video","categoryS":"movies","magnet":"?xt=urn:btih:8e66af9b1e637128fde23418c6ddbf3929e271ba&amp;dn=The+Croods+DvDRip+x264+AC3+UNiQUE&amp;tr=udp%3A%2F%2Ftracker.openbittorrent.com%3A80&amp;tr=udp%3A%2F%2Fopen.demonii.com%3A1337&amp;tr=udp%3A%2F%2Ftracker.coppersurfer.tk%3A6969&amp;tr=udp%3A%2F%2Fexodus.desync.com%3A6969","seeders":1,"leechers":0,"uploader":"xxxlavalxxx","files":-1,"time":1379006431,"description":" &lt;a href=&quot;\nhttp://www.imdb.com/title/tt0481499/&quot; rel=&quot;nofollow&quot; target=&quot;_NEW&quot;&gt;\nhttp://www.imdb.com/title/tt0481499/&lt;/a&gt;\n\n\n\nAfter their cave is destroyed, a caveman family must trek through an unfamiliar fantastical world with the help of an inventive boy. \nThe Croods is a prehistoric comedy adventure that follows the world's first family as they embark on a journey of a lifetime when the cave that has always shielded them from danger is destroyed. Traveling across a spectacular landscape, the Croods discover an incredible new world filled with fantastic creatures -- and their outlook is changed forever. \n\n\nDirectors:\n Kirk De Micco, Chris Sanders \n\nWriters:\n Chris Sanders (screenplay), Kirk De Micco (screenplay) \n\nStars:\n Nicolas Cage, Ryan Reynolds, Emma Stone \n\nGenres:\n  Animation |  Adventure |  Comedy |  Family |  Fantasy \n\nCountry:\n USA \n\nLanguage:\n English \n\n\n\n\nSource R4 Latino DVDR THX\n\n General:\n\n Format                                   : Matroska\n Format version                           : Version 2\n File size                                : 1.60 GiB\n Duration                                 : 1h 38mn\n Overall bit rate mode                    : Variable\n Overall bit rate                         : 2 321 Kbps\n Encoded date                             : UTC 2013-09-12 14:10:47\n Writing application                      : mkvmerge v6.3.0 ('You can't stop me!') built on Jun  28 2013 20 :09:41\n Writing library                          : libebml v1.3.0 + libmatroska v1.4.0\n\n Video:\n\n ID                                       : 1\n Format                                   : AVC\n Format/Info                              : Advanced Video Codec\n Format profile                           : &lt;a class=&quot;__cf_email__&quot; href=&quot;/cdn-cgi/l/email-protection&quot; data-cfemail=&quot;6028090708202c544e51&quot;&gt;[email&amp;#160;protected]&lt;/a&gt;&lt;script cf-hash='f9e31' type=&quot;text/javascript&quot;&gt;\n/* &lt;![CDATA[ */!function(){try{var t=&quot;currentScript&quot;in document?document.currentScript:function(){for(var t=document.getElementsByTagName(&quot;script&quot;),e=t.length;e--;)if(t[e].getAttribute(&quot;cf-hash&quot;))return t[e]}();if(t&amp;&amp;t.previousSibling){var e,r,n,i,c=t.previousSibling,a=c.getAttribute(&quot;data-cfemail&quot;);if(a){for(e=&quot;&quot;,r=parseInt(a.substr(0,2),16),n=2;a.length-n;n+=2)i=parseInt(a.substr(n,2),16)^r,e+=String.fromCharCode(i);e=document.createTextNode(e),c.parentNode.replaceChild(e,c)}}}catch(u){}}();/* ]]&gt; */&lt;/script&gt;\n Format settings, CABAC                   : Yes\n Format settings, ReFrames                : 3 frames\n Codec ID                                 : V_MPEG4/ISO/AVC\n Duration                                 : 1h 38mn\n Bit rate mode                            : Variable\n Bit rate                                 : 1 870 Kbps\n Maximum bit rate                         : 40.0 Mbps\n Width                                    : 720 pixels\n Height                                   : 304 pixels\n Display aspect ratio                     : 2.35:1\n Frame rate                               : 23.976 fps\n Color space                              : YUV\n Chroma subsampling                       : 4:2:0\n Bit depth                                : 8 bits\n Scan type                                : Progressive\n Bits/(Pixel*Frame)                       : 0.356\n Stream size                              : 1.26 GiB (79%)\n Writing library                          : x264 core 138 r2358 9e941d1\n Default                                  : Yes\n Forced                                   : No\n\n\n Audio:\n\n ID                                       : 2\n Format                                   : AC-3\n Format/Info                              : Audio Coding 3\n Mode extension                           : CM (complete main)\n Format settings, Endianness              : Big\n Codec ID                                 : A_AC3\n Duration                                 : 1h 38mn\n Bit rate mode                            : Constant\n Bit rate                                 : 448 Kbps\n Channel(s)                               : 6 channels\n Channel positions                        : Front: L C R, Side: L R, LFE\n Sampling rate                            : 48.0 KHz\n Bit depth                                : 16 bits\n Compression mode                         : Lossy\n Stream size                              : 316 MiB (19%)\n Language                                 : English\n Default                                  : Yes\n Forced                                   : No\n\n Text:\n\n ID                                       : 3\n Format                                   : VobSub\n Muxing mode                              : zlib\n Codec ID                                 : S_VOBSUB\n Codec ID/Info                            : The same subtitle format used on DVDs\n Title                                    : English - (Caption/Normal Size Char)\n Language                                 : English\n Default                                  : No\n Forced                                   : No\n\n\n Note R4 DVDR quality was not great for dvd.. but came out descent.. so take it or wait for r1 dvd release\n\n\n &lt;a href=&quot;\nhttp://bayimg.com/HaPnHAaEH&quot; rel=&quot;nofollow&quot; target=&quot;_NEW&quot;&gt;\nhttp://bayimg.com/HaPnHAaEH&lt;/a&gt; &lt;a href=&quot;\nhttp://bayimg.com/haPNIAAEH&quot; rel=&quot;nofollow&quot; target=&quot;_NEW&quot;&gt;\nhttp://bayimg.com/haPNIAAEH&lt;/a&gt;","torrent":{"xt":"urn:btih:8e66af9b1e637128fde23418c6ddbf3929e271ba","amp;dn":"The+Croods+DvDRip+x264+AC3+UNiQUE","amp;tr":["udp%3A%2F%2Ftracker.openbittorrent.com%3A80","udp%3A%2F%2Fopen.demonii.com%3A1337","udp%3A%2F%2Ftracker.coppersurfer.tk%3A6969","udp%3A%2F%2Fexodus.desync.com%3A6969"],"infoHash":"8e66af9b1e637128fde23418c6ddbf3929e271ba","infoHashBuffer":{"type":"Buffer","data":[142,102,175,155,30,99,113,40,253,226,52,24,198,221,191,57,41,226,113,186]},"announce":[],"urlList":[]}}